<svg width="30" height="30" viewBox="0 0 30 30" fill="none" xmlns="http://www.w3.org/2000/svg">
<rect width="30" height="30" rx="10" fill="#EA4F2C"/>
<path d="M12.3923 5.5C13.547 3.5 16.4338 3.5 17.5885 5.5L25.3827 19C26.5374 21 25.094 23.5 22.7846 23.5H7.19615C4.88675 23.5 3.44338 21 4.59808 19L12.3923 5.5Z" fill="white"/>
<path d="M16.2007 9.33594L15.959 16.7407H14.2012L13.9521 9.33594H16.2007ZM13.8936 19.0332C13.8936 18.7207 14.001 18.4619 14.2158 18.2568C14.4355 18.0469 14.7236 17.9419 15.0801 17.9419C15.4414 17.9419 15.7295 18.0469 15.9443 18.2568C16.1592 18.4619 16.2666 18.7207 16.2666 19.0332C16.2666 19.3359 16.1592 19.5923 15.9443 19.8022C15.7295 20.0122 15.4414 20.1172 15.0801 20.1172C14.7236 20.1172 14.4355 20.0122 14.2158 19.8022C14.001 19.5923 13.8936 19.3359 13.8936 19.0332Z" fill="#EA4F2C"/>
</svg>
